<?xml version="1.0" encoding="utf-8"?>
<!-- Generator: Adobe Illustrator 17.0.0, SVG Export Plug-In . SVG Version: 6.00 Build 0)  -->
<!DOCTYPE svg PUBLIC "-//W3C//DTD SVG 1.1//EN" "http://www.w3.org/Graphics/SVG/1.1/DTD/svg11.dtd">
<svg version="1.1" id="Layer_1" xmlns="http://www.w3.org/2000/svg" xmlns:xlink="http://www.w3.org/1999/xlink" x="0px" y="0px"
	 width="384px" height="277.332px" viewBox="0 0 384 277.332" enable-background="new 0 0 384 277.332" xml:space="preserve">
<path fill="#FFFFFF" d="M368,154.668H16c-8.832,0-16-7.168-16-16s7.168-16,16-16h352c8.832,0,16,7.168,16,16
	S376.832,154.668,368,154.668z"/>
<path fill="#FFFFFF" d="M368,32H16C7.168,32,0,24.832,0,16S7.168,0,16,0h352c8.832,0,16,7.168,16,16S376.832,32,368,32z"/>
<path fill="#FFFFFF" d="M368,277.332H16c-8.832,0-16-7.168-16-16s7.168-16,16-16h352c8.832,0,16,7.168,16,16
	S376.832,277.332,368,277.332z"/>
</svg>
