<?xml version="1.0"?>
<svg xmlns="http://www.w3.org/2000/svg" xmlns:xlink="http://www.w3.org/1999/xlink" xmlns:svgjs="http://svgjs.com/svgjs" version="1.1" width="512" height="512" x="0" y="0" viewBox="0 0 511.654 511.654" style="enable-background:new 0 0 512 512" xml:space="preserve" class=""><g><path xmlns="http://www.w3.org/2000/svg" d="m362.327 511.654h-213c-55.14 0-100-44.86-100-100v-199c0-55.14 44.86-100 100-100h213c55.14 0 100 44.86 100 100v199c0 55.14-44.86 100-100 100zm-213-359c-33.084 0-60 26.916-60 60v199c0 33.084 26.916 60 60 60h213c33.084 0 60-26.916 60-60v-199c0-33.084-26.916-60-60-60zm158 209c0-11.046-8.954-20-20-20h-63c-26.536 1.056-26.516 38.953 0 40h63c11.046 0 20-8.954 20-20zm55 70c-11.046 0-20-8.954-20-20v-150c0-11.028-8.972-20-20-20h-133c-11.028 0-20 8.972-20 20v150c-1.056 26.536-38.953 26.516-40 0v-150c0-33.084 26.916-60 60-60h133c33.084 0 60 26.916 60 60v150c0 11.046-8.954 20-20 20zm-40.923-365c-3.685-88.892-130.336-88.852-134 .001 0 11.045 8.954 19.999 20 19.999s20-8.954 20-20c0-14.888 12.112-27 27-27s27 12.112 27 27c0 11.046 8.954 20 20 20s20-8.954 20-20z" fill="#565656" data-original="#000000" style="" class=""/></g></svg>
